<?xml version="1.0" encoding="utf-8"?>
<!-- Generator: Adobe Illustrator 26.0.0, SVG Export Plug-In . SVG Version: 6.00 Build 0)  -->
<svg version="1.1" xmlns="http://www.w3.org/2000/svg" xmlns:xlink="http://www.w3.org/1999/xlink" x="0px" y="0px" width="150px"
	 height="150px" viewBox="0 0 150 150" style="enable-background:new 0 0 150 150;" xml:space="preserve">
<style type="text/css">
	.st0{display:none;}
	.st1{display:inline;fill:#FFFFFF;}
	.st2{display:inline;}
	.st3{clip-path:url(#SVGID_00000072969517804557560310000000320490690318117797_);}
	.st4{clip-path:url(#SVGID_00000136381017906371528140000017156395181935209662_);}
	.st5{clip-path:url(#SVGID_00000136381017906371528140000017156395181935209662_);fill:#E3E9ED;}
	.st6{clip-path:url(#SVGID_00000136381017906371528140000017156395181935209662_);fill:#CFD9E0;}
	.st7{clip-path:url(#SVGID_00000136381017906371528140000017156395181935209662_);fill:#FFFFFF;}
	.st8{clip-path:url(#SVGID_00000151540521109121563730000015038419681467258249_);}
	.st9{clip-path:url(#SVGID_00000181767876456179468770000009061664438846727592_);}
	.st10{clip-path:url(#SVGID_00000181767876456179468770000009061664438846727592_);fill:#E3E9ED;}
	.st11{clip-path:url(#SVGID_00000181767876456179468770000009061664438846727592_);fill:#CFD9E0;}
	.st12{clip-path:url(#SVGID_00000181767876456179468770000009061664438846727592_);fill:#FFFFFF;}
	.st13{clip-path:url(#SVGID_00000181082435951760660830000000419870946132764839_);}
	.st14{clip-path:url(#SVGID_00000111877782714264009280000016760618167821158833_);}
	.st15{clip-path:url(#SVGID_00000111877782714264009280000016760618167821158833_);fill:#E3E9ED;}
	.st16{clip-path:url(#SVGID_00000111877782714264009280000016760618167821158833_);fill:#CFD9E0;}
	.st17{clip-path:url(#SVGID_00000111877782714264009280000016760618167821158833_);fill:#FFFFFF;}
	.st18{fill:#374957;}
	.st19{font-family:'ProximaNova-Regular';}
	.st20{font-size:6.0796px;}
	.st21{fill:#5F7D95;}
	.st22{font-size:4.7769px;}
	.st23{font-size:6.9482px;}
	.st24{font-family:'ProximaNova-Bold';}
</style>
<g id="Layer_1">
	<g>
		<path d="M112.1,99.1c10.7-10,17.3-24.3,17.3-40c0-12.5-4.1-24.4-11.9-34.2C110,15.4,99.4,8.6,87.6,5.7c-1.5-0.4-3,0.5-3.4,2
			c-0.4,1.5,0.5,3,2,3.4c22.1,5.5,37.5,25.2,37.5,48c0,27.3-22.2,49.4-49.4,49.4S24.9,86.4,24.9,59.1c0-22.8,15.4-42.5,37.5-48
			c1.5-0.4,2.4-1.9,2-3.4c-0.4-1.5-1.9-2.4-3.4-2c-11.7,2.9-22.3,9.7-29.9,19.3c-7.8,9.8-11.9,21.6-11.9,34.2c0,15.8,6.7,30,17.3,40
			l-14.7,28c-0.7,1.4-0.2,3.1,1.2,3.8l0.1,0.1c0.6,0.3,1.4,0.4,2,0.2l20.3-5.5l7.1,19.8c0.4,1,1.3,1.8,2.4,1.9c0.1,0,0.1,0,0.2,0
			c1,0,2-0.6,2.5-1.5l16.6-31.7l16.6,31.7c0.5,0.9,1.4,1.5,2.5,1.5c0.1,0,0.1,0,0.2,0c1.1-0.1,2.1-0.8,2.4-1.9l7.1-19.8l20.3,5.5
			c0.7,0.2,1.4,0.1,2-0.2l0.1-0.1c1.4-0.7,1.9-2.4,1.2-3.8L112.1,99.1z M55.8,137.6L50,121.4c-0.5-1.4-2-2.1-3.4-1.8l-16.8,4.5
			L41,102.9c7.7,5.9,17.1,9.8,27.3,10.9L55.8,137.6z M102.1,119.6c-1.4-0.4-2.9,0.4-3.4,1.8l-5.8,16.2l-12.5-23.8
			c10.2-1.1,19.5-5,27.3-10.9l11.2,21.3L102.1,119.6z"/>
		<circle cx="74.4" cy="6.9" r="2.8"/>
		<path d="M33.3,59.1c0,22.6,18.4,41,41,41s41-18.4,41-41s-18.4-41-41-41S33.3,36.5,33.3,59.1z M109.8,59.1
			c0,19.5-15.9,35.4-35.4,35.4S38.9,78.6,38.9,59.1s15.9-35.4,35.4-35.4S109.8,39.6,109.8,59.1z"/>
		<path d="M68.8,48.8c0,1.3-0.7,2.5-1.8,3.1l-1.9,1c-0.5-0.9-1.4-1.5-2.5-1.5H51.4c-1.5,0-2.8,1.3-2.8,2.8v19.1
			c0,1.5,1.3,2.8,2.8,2.8h11.2c1.1,0,2-0.6,2.5-1.5l1.9,1c2.6,1.4,5.5,2.1,8.5,2.1h9.4c6.6,0,12.4-4.7,13.7-11.2l1.5-7.3
			c0.5-2.3-0.1-4.7-1.6-6.6c-1.5-1.8-3.7-2.9-6.1-2.9h-6.6V49c0-4.6-3.6-8.4-8.1-8.5c-2.3-0.1-4.5,0.8-6.1,2.3
			C69.7,44.4,68.8,46.5,68.8,48.8L68.8,48.8z M59.8,70.5h-5.6V57h5.6V70.5z M74.4,48.8c0-0.8,0.3-1.5,0.9-2c0.6-0.5,1.3-0.8,2-0.8
			c1.5,0.1,2.7,1.4,2.7,2.9v3.6c0,1.5,1.3,2.8,2.8,2.8h9.4c1,0,1.5,0.5,1.8,0.9c0.3,0.3,0.7,1,0.5,1.9l-1.5,7.3
			c-0.8,3.9-4.2,6.7-8.2,6.7h-9.4c-2,0-4.1-0.5-5.9-1.5l-4.2-2.2v-9.4l4.2-2.3C72.6,55.2,74.4,52.2,74.4,48.8L74.4,48.8z"/>
	</g>
</g>
<g id="Layer_2" class="st0">
	<rect x="40.5" y="-314.5" class="st1" width="344.5" height="488.2"/>
	<g class="st2">
		<g>
			<defs>
				<rect id="SVGID_00000040572418716834541780000007663628977042609305_" x="40.5" y="-314.5" width="344.5" height="487.5"/>
			</defs>
			<clipPath id="SVGID_00000052793307307987295420000004156973296915960977_">
				<use xlink:href="#SVGID_00000040572418716834541780000007663628977042609305_"  style="overflow:visible;"/>
			</clipPath>
			<g style="clip-path:url(#SVGID_00000052793307307987295420000004156973296915960977_);">
				<defs>
					<rect id="SVGID_00000073711174380841892010000000704249762784584079_" x="40.5" y="-314.5" width="344.4" height="487.7"/>
				</defs>
				<clipPath id="SVGID_00000095334285108854152540000010608045459591908007_">
					<use xlink:href="#SVGID_00000073711174380841892010000000704249762784584079_"  style="overflow:visible;"/>
				</clipPath>
				
					<rect x="53.5" y="-175.1" style="clip-path:url(#SVGID_00000095334285108854152540000010608045459591908007_);fill:#E3E9ED;" width="318.3" height="199.8"/>
				
					<rect x="53.5" y="-7.5" style="clip-path:url(#SVGID_00000095334285108854152540000010608045459591908007_);fill:#FFFFFF;" width="62.1" height="31.7"/>
				
					<rect x="53.5" y="24.2" style="clip-path:url(#SVGID_00000095334285108854152540000010608045459591908007_);fill:#E3E9ED;" width="62.5" height="0.4"/>
				
					<rect x="53.5" y="-7.5" style="clip-path:url(#SVGID_00000095334285108854152540000010608045459591908007_);fill:#E3E9ED;" width="0.4" height="32.1"/>
				
					<rect x="115.6" y="-7.5" style="clip-path:url(#SVGID_00000095334285108854152540000010608045459591908007_);fill:#E3E9ED;" width="0.4" height="32.1"/>
				
					<rect x="115.6" y="-7.5" style="clip-path:url(#SVGID_00000095334285108854152540000010608045459591908007_);fill:#E3E9ED;" width="0.4" height="32.1"/>
				
					<rect x="115.6" y="24.2" style="clip-path:url(#SVGID_00000095334285108854152540000010608045459591908007_);fill:#FFFFFF;" width="70.4" height="0.4"/>
				
					<rect x="40.5" y="136.3" style="clip-path:url(#SVGID_00000095334285108854152540000010608045459591908007_);fill:#E3E9ED;" width="344.4" height="36.5"/>
				<g style="clip-path:url(#SVGID_00000095334285108854152540000010608045459591908007_);">
					<defs>
						<rect id="SVGID_00000173145355010117165840000012942188342767779472_" x="71.8" y="-4.4" width="26.1" height="26.1"/>
					</defs>
					<clipPath id="SVGID_00000018203088802658388170000012649677016586388645_">
						<use xlink:href="#SVGID_00000173145355010117165840000012942188342767779472_"  style="overflow:visible;"/>
					</clipPath>
					<g style="clip-path:url(#SVGID_00000018203088802658388170000012649677016586388645_);">
						
							<image style="overflow:visible;" width="128" height="128" xlink:href="E5B7BB3C092213B3.png"  transform="matrix(0.2036 0 0 0.2036 71.7542 -4.4296)">
						</image>
					</g>
				</g>
				<g style="clip-path:url(#SVGID_00000095334285108854152540000010608045459591908007_);">
					<text transform="matrix(1 0 0 1 124.7334 10.7695)" class="st18 st19 st20">S</text>
				</g>
				<g style="clip-path:url(#SVGID_00000095334285108854152540000010608045459591908007_);">
					<text transform="matrix(1 0 0 1 128.2959 10.7695)" class="st18 st19 st20">u</text>
				</g>
				<g style="clip-path:url(#SVGID_00000095334285108854152540000010608045459591908007_);">
					<text transform="matrix(1 0 0 1 131.6416 10.7695)" class="st18 st19 st20">c</text>
				</g>
				<g style="clip-path:url(#SVGID_00000095334285108854152540000010608045459591908007_);">
					<text transform="matrix(1 0 0 1 134.6475 10.7695)" class="st18 st19 st20">c</text>
				</g>
				<g style="clip-path:url(#SVGID_00000095334285108854152540000010608045459591908007_);">
					<text transform="matrix(1 0 0 1 137.6533 10.7695)" class="st18 st19 st20">e</text>
				</g>
				<g style="clip-path:url(#SVGID_00000095334285108854152540000010608045459591908007_);">
					<text transform="matrix(1 0 0 1 141.0732 10.7695)" class="st18 st19 st20">s</text>
				</g>
				<g style="clip-path:url(#SVGID_00000095334285108854152540000010608045459591908007_);">
					<text transform="matrix(1 0 0 1 143.8955 10.7695)" class="st18 st19 st20">s</text>
				</g>
				<g style="clip-path:url(#SVGID_00000095334285108854152540000010608045459591908007_);">
					<text transform="matrix(1 0 0 1 143.4072 37.6934)" class="st21 st19 st22">*</text>
				</g>
				<g style="clip-path:url(#SVGID_00000095334285108854152540000010608045459591908007_);">
					<text transform="matrix(1 0 0 1 145.1436 37.6934)" class="st21 st19 st22"> </text>
				</g>
				<g style="clip-path:url(#SVGID_00000095334285108854152540000010608045459591908007_);">
					<text transform="matrix(1 0 0 1 146.3721 37.6934)" class="st21 st19 st22">a</text>
				</g>
				<g style="clip-path:url(#SVGID_00000095334285108854152540000010608045459591908007_);">
					<text transform="matrix(1 0 0 1 148.8828 37.6934)" class="st21 st19 st22">s</text>
				</g>
				<g style="clip-path:url(#SVGID_00000095334285108854152540000010608045459591908007_);">
					<text transform="matrix(1 0 0 1 80.874 74.1709)" class="st21 st19 st23">F</text>
				</g>
				<g style="clip-path:url(#SVGID_00000095334285108854152540000010608045459591908007_);">
					<text transform="matrix(1 0 0 1 84.6934 74.1709)" class="st21 st19 st23">o</text>
				</g>
				<g style="clip-path:url(#SVGID_00000095334285108854152540000010608045459591908007_);">
					<text transform="matrix(1 0 0 1 88.6631 74.1709)" class="st21 st19 st23">r</text>
				</g>
				<g style="clip-path:url(#SVGID_00000095334285108854152540000010608045459591908007_);">
					<text transform="matrix(1 0 0 1 90.9502 74.1709)" class="st21 st19 st23"> </text>
				</g>
				<g style="clip-path:url(#SVGID_00000095334285108854152540000010608045459591908007_);">
					<text transform="matrix(1 0 0 1 92.7412 74.1709)" class="st21 st19 st23">a</text>
				</g>
				<g style="clip-path:url(#SVGID_00000095334285108854152540000010608045459591908007_);">
					<text transform="matrix(1 0 0 1 96.3984 74.1709)" class="st21 st19 st23">n</text>
				</g>
				<g style="clip-path:url(#SVGID_00000095334285108854152540000010608045459591908007_);">
					<text transform="matrix(1 0 0 1 100.2256 74.1709)" class="st21 st19 st23">y</text>
				</g>
				<g style="clip-path:url(#SVGID_00000095334285108854152540000010608045459591908007_);">
					<text transform="matrix(1 0 0 1 103.625 74.1709)" class="st21 st19 st23"> </text>
				</g>
				<g style="clip-path:url(#SVGID_00000095334285108854152540000010608045459591908007_);">
					<text transform="matrix(1 0 0 1 105.416 74.1709)" class="st21 st19 st23">q</text>
				</g>
				<g style="clip-path:url(#SVGID_00000095334285108854152540000010608045459591908007_);">
					<text transform="matrix(1 0 0 1 109.3994 74.1709)" class="st21 st19 st23">u</text>
				</g>
				<g style="clip-path:url(#SVGID_00000095334285108854152540000010608045459591908007_);">
					<text transform="matrix(1 0 0 1 113.2256 74.1709)" class="st21 st19 st23">e</text>
				</g>
				<g style="clip-path:url(#SVGID_00000095334285108854152540000010608045459591908007_);">
					<text transform="matrix(1 0 0 1 117.1338 74.1709)" class="st21 st19 st23">r</text>
				</g>
				<g style="clip-path:url(#SVGID_00000095334285108854152540000010608045459591908007_);">
					<text transform="matrix(1 0 0 1 119.4209 74.1709)" class="st21 st19 st23">i</text>
				</g>
				<g style="clip-path:url(#SVGID_00000095334285108854152540000010608045459591908007_);">
					<text transform="matrix(1 0 0 1 120.9814 74.1709)" class="st21 st19 st23">e</text>
				</g>
				<g style="clip-path:url(#SVGID_00000095334285108854152540000010608045459591908007_);">
					<text transform="matrix(1 0 0 1 124.8896 74.1709)" class="st21 st19 st23">s</text>
				</g>
				<g style="clip-path:url(#SVGID_00000095334285108854152540000010608045459591908007_);">
					<text transform="matrix(1 0 0 1 128.1201 74.1709)" class="st21 st19 st23"> </text>
				</g>
				<g style="clip-path:url(#SVGID_00000095334285108854152540000010608045459591908007_);">
					<text transform="matrix(1 0 0 1 129.9111 74.1709)" class="st21 st19 st23">r</text>
				</g>
				<g style="clip-path:url(#SVGID_00000095334285108854152540000010608045459591908007_);">
					<text transform="matrix(1 0 0 1 132.1973 74.1709)" class="st21 st19 st23">e</text>
				</g>
				<g style="clip-path:url(#SVGID_00000095334285108854152540000010608045459591908007_);">
					<text transform="matrix(1 0 0 1 136.1064 74.1709)" class="st21 st19 st23">l</text>
				</g>
				<g style="clip-path:url(#SVGID_00000095334285108854152540000010608045459591908007_);">
					<text transform="matrix(1 0 0 1 137.667 74.1709)" class="st21 st19 st23">a</text>
				</g>
				<g style="clip-path:url(#SVGID_00000095334285108854152540000010608045459591908007_);">
					<text transform="matrix(1 0 0 1 141.3242 74.1709)" class="st21 st19 st23">t</text>
				</g>
				<g style="clip-path:url(#SVGID_00000095334285108854152540000010608045459591908007_);">
					<text transform="matrix(1 0 0 1 143.3662 74.1709)" class="st21 st19 st23">e</text>
				</g>
				<g style="clip-path:url(#SVGID_00000095334285108854152540000010608045459591908007_);">
					<text transform="matrix(1 0 0 1 147.2744 74.1709)" class="st21 st19 st23">d</text>
				</g>
				<g style="clip-path:url(#SVGID_00000095334285108854152540000010608045459591908007_);">
					<text transform="matrix(1 0 0 1 60.8975 154.0752)" class="st21 st24 st20">F</text>
				</g>
				<g style="clip-path:url(#SVGID_00000095334285108854152540000010608045459591908007_);">
					<text transform="matrix(1 0 0 1 64.3652 154.0752)" class="st21 st24 st20">r</text>
				</g>
				<g style="clip-path:url(#SVGID_00000095334285108854152540000010608045459591908007_);">
					<text transform="matrix(1 0 0 1 66.5498 154.0752)" class="st21 st24 st20">e</text>
				</g>
				<g style="clip-path:url(#SVGID_00000095334285108854152540000010608045459591908007_);">
					<text transform="matrix(1 0 0 1 69.9082 154.0752)" class="st21 st24 st20">e</text>
				</g>
				<g style="clip-path:url(#SVGID_00000095334285108854152540000010608045459591908007_);">
					<text transform="matrix(1 0 0 1 73.2676 154.0752)" class="st21 st24 st20">p</text>
				</g>
				<g style="clip-path:url(#SVGID_00000095334285108854152540000010608045459591908007_);">
					<text transform="matrix(1 0 0 1 76.8232 154.0752)" class="st21 st24 st20">i</text>
				</g>
				<g style="clip-path:url(#SVGID_00000095334285108854152540000010608045459591908007_);">
					<text transform="matrix(1 0 0 1 78.3564 154.0752)" class="st21 st24 st20">k</text>
				</g>
				<g style="clip-path:url(#SVGID_00000095334285108854152540000010608045459591908007_);">
					<text transform="matrix(1 0 0 1 81.6064 154.0752)" class="st21 st24 st20"> </text>
				</g>
				<g style="clip-path:url(#SVGID_00000095334285108854152540000010608045459591908007_);">
					<text transform="matrix(1 0 0 1 83.1602 154.0752)" class="st21 st24 st20">C</text>
				</g>
				<g style="clip-path:url(#SVGID_00000095334285108854152540000010608045459591908007_);">
					<text transform="matrix(1 0 0 1 87.333 154.0752)" class="st21 st24 st20">o</text>
				</g>
				<g style="clip-path:url(#SVGID_00000095334285108854152540000010608045459591908007_);">
					<text transform="matrix(1 0 0 1 90.8213 154.0752)" class="st21 st24 st20">m</text>
				</g>
				<g style="clip-path:url(#SVGID_00000095334285108854152540000010608045459591908007_);">
					<text transform="matrix(1 0 0 1 95.998 154.0752)" class="st21 st24 st20">p</text>
				</g>
				<g style="clip-path:url(#SVGID_00000095334285108854152540000010608045459591908007_);">
					<text transform="matrix(1 0 0 1 99.5537 154.0752)" class="st21 st24 st20">a</text>
				</g>
				<g style="clip-path:url(#SVGID_00000095334285108854152540000010608045459591908007_);">
					<text transform="matrix(1 0 0 1 102.8516 154.0752)" class="st21 st24 st20">n</text>
				</g>
				<g style="clip-path:url(#SVGID_00000095334285108854152540000010608045459591908007_);">
					<text transform="matrix(1 0 0 1 106.3662 154.0752)" class="st21 st24 st20">y</text>
				</g>
				<g style="clip-path:url(#SVGID_00000095334285108854152540000010608045459591908007_);">
					<text transform="matrix(1 0 0 1 109.0459 154.0752)" class="st21 st24 st20">,</text>
				</g>
				<g style="clip-path:url(#SVGID_00000095334285108854152540000010608045459591908007_);">
					<text transform="matrix(1 0 0 1 110.5996 154.0752)" class="st21 st24 st20"> </text>
				</g>
				<g style="clip-path:url(#SVGID_00000095334285108854152540000010608045459591908007_);">
					<text transform="matrix(1 0 0 1 112.1543 154.0752)" class="st21 st24 st20">S</text>
				</g>
				<g style="clip-path:url(#SVGID_00000095334285108854152540000010608045459591908007_);">
					<text transform="matrix(1 0 0 1 115.7979 154.0752)" class="st21 st24 st20">.</text>
				</g>
				<g style="clip-path:url(#SVGID_00000095334285108854152540000010608045459591908007_);">
					<text transform="matrix(1 0 0 1 117.3516 154.0752)" class="st21 st24 st20">L</text>
				</g>
				<g style="clip-path:url(#SVGID_00000095334285108854152540000010608045459591908007_);">
					<text transform="matrix(1 0 0 1 120.8252 154.0752)" class="st21 st19 st20"> </text>
				</g>
				<g style="clip-path:url(#SVGID_00000095334285108854152540000010608045459591908007_);">
					<text transform="matrix(1 0 0 1 122.3926 154.0752)" class="st21 st19 st20">C</text>
				</g>
				<g style="clip-path:url(#SVGID_00000095334285108854152540000010608045459591908007_);">
					<text transform="matrix(1 0 0 1 126.498 154.0752)" class="st21 st19 st20">o</text>
				</g>
				<g style="clip-path:url(#SVGID_00000095334285108854152540000010608045459591908007_);">
					<text transform="matrix(1 0 0 1 129.9717 154.0752)" class="st21 st19 st20">m</text>
				</g>
				<g style="clip-path:url(#SVGID_00000095334285108854152540000010608045459591908007_);">
					<text transform="matrix(1 0 0 1 134.8779 154.0752)" class="st21 st19 st20">m</text>
				</g>
				<g style="clip-path:url(#SVGID_00000095334285108854152540000010608045459591908007_);">
					<text transform="matrix(1 0 0 1 139.7832 154.0752)" class="st21 st19 st20">e</text>
				</g>
				<g style="clip-path:url(#SVGID_00000095334285108854152540000010608045459591908007_);">
					<text transform="matrix(1 0 0 1 143.2031 154.0752)" class="st21 st19 st20">r</text>
				</g>
				<g style="clip-path:url(#SVGID_00000095334285108854152540000010608045459591908007_);">
					<text transform="matrix(1 0 0 1 145.2051 154.0752)" class="st21 st19 st20">c</text>
				</g>
				<g style="clip-path:url(#SVGID_00000095334285108854152540000010608045459591908007_);">
					<text transform="matrix(1 0 0 1 148.2109 154.0752)" class="st21 st19 st20">i</text>
				</g>
				<g style="clip-path:url(#SVGID_00000095334285108854152540000010608045459591908007_);">
					<text transform="matrix(1 0 0 1 149.5752 154.0752)" class="st21 st19 st20">a</text>
				</g>
			</g>
		</g>
	</g>
</g>
</svg>
