<?xml version="1.0" encoding="utf-8"?>
<!-- Generator: Adobe Illustrator 26.0.0, SVG Export Plug-In . SVG Version: 6.00 Build 0)  -->
<svg version="1.1" id="Layer_2" xmlns="http://www.w3.org/2000/svg" xmlns:xlink="http://www.w3.org/1999/xlink" x="0px" y="0px"
	 width="150px" height="150px" viewBox="0 0 150 150" style="enable-background:new 0 0 150 150;" xml:space="preserve">
<style type="text/css">
	.st0{fill:none;stroke:#000000;stroke-width:5;stroke-linecap:round;stroke-linejoin:round;stroke-miterlimit:10;}
	.st1{stroke:#000000;stroke-width:2;stroke-linecap:round;stroke-linejoin:round;stroke-miterlimit:10;}
	.st2{stroke:#000000;stroke-width:5;stroke-miterlimit:10;}
	.st3{fill:none;stroke:#000000;stroke-width:5.2497;stroke-linecap:round;stroke-linejoin:round;stroke-miterlimit:10;}
	.st4{fill:none;stroke:#000000;stroke-width:4.8707;stroke-linecap:round;stroke-linejoin:round;stroke-miterlimit:10;}
	.st5{fill:none;stroke:#000000;stroke-width:4.9585;stroke-linecap:round;stroke-linejoin:round;stroke-miterlimit:10;}
</style>
<g>
	<path d="M55.2,59.4c-0.3,0.9,0,1.9,0.6,2.5l7.9,7.6L63.4,71c0,0,0,0,0,0l-0.1,0.7l0,0.3c0,0,0,0,0,0l-1.4,8.4
		c-0.2,0.9,0.2,1.9,1,2.4c0.4,0.3,0.9,0.5,1.4,0.5c0.4,0,0.8-0.1,1.1-0.3l9.7-5.1l9.7,5.1c0.8,0.4,1.8,0.4,2.6-0.2
		c0.8-0.6,1.1-1.5,1-2.4l-1.9-10.8l7.9-7.6c1-0.9,1-2.5,0.1-3.5c-0.9-1-2.5-1-3.5-0.1l-8.8,8.6c-0.6,0.6-0.8,1.4-0.7,2.2l1.2,7.2
		l-6.5-3.4c-0.7-0.4-1.6-0.4-2.3,0l-6.5,3.4l0.6-3.5c0,0,0,0,0,0l0.6-3.7c0.1-0.8-0.1-1.6-0.7-2.2l-5.2-5.1l7.2-1
		c0.8-0.1,1.5-0.6,1.9-1.3l3.2-6.5l3.2,6.5c0.6,1.2,2.1,1.7,3.3,1.1c1.2-0.6,1.7-2.1,1.1-3.3l-5.4-11c-0.4-0.8-1.3-1.4-2.2-1.4
		s-1.8,0.5-2.2,1.4L68,56.1l-10.9,1.6C56.2,57.8,55.5,58.5,55.2,59.4z"/>
	<path d="M85.6,61.4l0.6,0.1c0.1,0,0.2,0,0.2,0c1.3,0,2.3-1,2.4-2.2c0.1-1.4-0.9-2.5-2.2-2.7l-0.6-0.1c-1.3-0.1-2.5,0.9-2.7,2.2
		C83.3,60.1,84.3,61.3,85.6,61.4z"/>
	<path d="M61.9,41.1h1c1.4,0,2.5-1.1,2.5-2.5s-1.1-2.5-2.5-2.5h-1c-1.4,0-2.5,1.1-2.5,2.5S60.5,41.1,61.9,41.1z"/>
	<path d="M130.2,66.5c-1.3-0.5-2.7,0.2-3.1,1.4c-0.5,1.3,0.1,2.7,1.4,3.2c0,0,1.5,0.5,3.7,0.5c4.4,0,11.8-2.1,16.8-14.6
		c0.4-1,0.1-2.2-0.8-2.9c-0.3-0.2-7.6-5.5-15.8-3.3c-2.8,0.7-5.3,2.2-7.5,4.4c0-1.8-0.1-3.6-0.3-5.3c2-1.6,6.1-5.2,9.1-10.2
		c4.5-7.5-1.6-18.7-1.9-19.2c-0.4-0.7-1.2-1.2-2-1.3c-3.7-0.2-11.4,2-14.2,12.1c-1.4,5.1,2,13.4,3.7,17.4c0.1,0.3,0.2,0.5,0.3,0.7
		c1.1,8.3-0.3,16.6-4,24.1c-1.7,3.4-3.8,6.5-6.2,9.3c0,0,0,0,0,0c-3.4,3.9-7.4,7-11.9,9.4c0.5-0.6,1.1-1.3,1.6-2c0,0,0,0,0,0
		c10.6-9.4,16.7-22.9,16.7-37c0-0.4,0.1-4.2-2.4-6.7c-1.3-1.4-3.2-2.1-5.3-2.1h-3.7v-3.9c2.6-1.1,4.4-3.7,4.4-6.6
		c0-4-3.2-7.2-7.2-7.2h-53c-4,0-7.2,3.2-7.2,7.2c0,3,1.8,5.5,4.3,6.6v3.9H42c-1.9,0-3.6,0.7-4.8,2c-2.4,2.5-2.4,6.4-2.4,6.8
		c0,13.2,5.2,25.7,14.6,35c0.2,0.2,0.4,0.4,0.7,0.5c0.7,1.2,1.5,2.3,2.4,3.3c-4.5-2.4-8.6-5.6-12-9.5c0,0,0,0,0,0
		c-2.4-2.8-4.5-5.9-6.2-9.3c-3.6-7.4-5-15.5-4-23.6c1.9-2.1,6.8-8.5,4.1-18.6c-2.7-10.1-10.4-12.4-14.2-12.2c-0.8,0-1.6,0.5-2,1.3
		c-0.3,0.5-6.5,11.7-2,19.2c3,5,7.1,8.6,9.1,10.2c-0.2,1.8-0.3,3.6-0.3,5.4c-2.2-2.2-4.7-3.7-7.5-4.4C9.3,48.3,2,53.5,1.7,53.7
		c-0.9,0.7-1.2,1.9-0.8,2.9c5.2,13,13.4,15,18,15c2,0,3.3-0.4,3.3-0.4c1.3-0.4,2-1.8,1.6-3s-1.8-2-3-1.7c-0.4,0.1-8.7,2.3-14.4-9.8
		c2.1-1.1,6-2.6,10-1.5c4,1.1,7.4,4.5,10,10.3c0.7,3.1,1.8,6.2,3.2,9.1c-3.8-0.7-8.4-0.3-13.3,3c-1.1,0.8-1.4,2.3-0.6,3.4
		c0.8,1.1,2.3,1.4,3.4,0.6c7.7-5.3,13.8-0.6,14.7,0.2c0.5,0.8,1.1,1.5,1.7,2.2c-4.1,4.9-8.4,7.6-12.8,7.7c-4.8,0.2-8.9-2.6-10.9-4.3
		c0.3-0.4,0.6-0.8,1-1.2c0.9-1,0.8-2.6-0.3-3.5c-1-0.9-2.6-0.8-3.5,0.3c-0.9,1-1.7,2.1-2.5,3.3c-0.6,0.9-0.5,2.1,0.2,3
		c0.3,0.3,6.5,7.3,15.5,7.3c0.2,0,0.5,0,0.7,0c5.7-0.2,11-3.2,15.9-8.9c7.4,7.5,17.2,12.3,28,13.7v4.6c-0.1,0.6-1,3.9-6.7,4.5
		c-8.3,0.8-10.2,7.5-10.1,10.9c0,0.7,0.1,2.7,1.6,4.3c0.8,0.9,2.3,1.9,4.9,1.9h19.8h17.3c2.5,0,4-1,4.9-1.9c1.5-1.6,1.6-3.7,1.6-4.3
		c0.1-3.5-1.8-10.1-10.1-10.9c-5.7-0.6-6.6-3.9-6.7-4.5v-4.3c10.8-1.3,20.5-6.1,27.9-13.6c4.9,5.7,10.2,8.7,15.9,9
		c0.2,0,0.5,0,0.7,0c8.9,0,15.2-6.9,15.4-7.2c0.7-0.8,0.8-2.1,0.2-3c-0.8-1.2-1.6-2.3-2.5-3.3c-0.1-0.1-0.1-0.1-0.2-0.2l-4.4-4.1
		c-0.1-0.1-0.2-0.1-0.3-0.2c-5.8-4-11.7-4.1-16-3.2c0-0.1,0.1-0.1,0.1-0.2c1.6-3.2,2.7-6.5,3.6-9.9c2.6-5.7,6-9.2,10-10.2
		c4-1.1,7.9,0.4,10,1.5C138,69.1,130.6,66.7,130.2,66.5z M20.4,36.7c-2.2-3.6-0.2-9.6,1.3-12.9c2.1,0.4,6.1,2,7.8,8.4
		c1.7,6.3-0.4,10.6-2,12.8C25.8,43.4,22.7,40.5,20.4,36.7z M108.1,49.4c1,0,1.5,0.4,1.8,0.6c0.9,0.9,1,2.6,1,3.2
		c0,8.3-2.4,16.4-6.6,23.4c0.1-1,0.2-2,0.2-3.1V49.4H108.1z M48.6,31.6h53c1.3,0,2.3,1,2.3,2.3s-1,2.3-2.3,2.3H70.8
		c-1.4,0-2.5,1.1-2.5,2.5s1.1,2.5,2.5,2.5h28.7v5.5c0,0.1,0,0.2,0,0.3s0,0.2,0,0.3v26.2c0,13.4-11,24.4-24.5,24.4
		c-2.3,0-4.4-0.3-6.5-0.9c-0.2-0.1-0.3-0.1-0.5-0.1c-10.1-3-17.4-12.3-17.4-23.4V41.1h4.5c1.4,0,2.5-1.1,2.5-2.5s-1.1-2.5-2.5-2.5
		h-6.5c-1.3,0-2.3-1-2.3-2.3S47.3,31.6,48.6,31.6z M39.7,53.1c0-0.6,0.2-2.5,1-3.3c0.2-0.2,0.6-0.5,1.3-0.5l2.9-2.6
		c0,0.1,0,0.1,0,0.2c0,0.7,0.3,1.3,0.8,1.8v24.8c0,0.8,0,1.5,0.1,2.3C41.8,69,39.7,61.2,39.7,53.1z M89.4,115.5
		c5.6,0.6,5.7,5,5.6,5.9c0,0.1,0,0.2,0,0.3c0,0,0,0.6-0.3,0.9c-0.3,0.3-0.9,0.3-1.3,0.3H76.2H56.4c-0.4,0-1,0-1.3-0.3
		c-0.3-0.3-0.3-0.8-0.3-0.9c0-0.1,0-0.2,0-0.3c0-0.9,0.1-5.3,5.6-5.9c8.1-0.8,10.8-6.2,11.1-9c0-0.1,0-0.2,0-0.3v-3.8
		c1.1,0.1,2.3,0.2,3.5,0.2c1.1,0,2.2-0.1,3.3-0.2v3.8c0,0.1,0,0.2,0,0.3C78.6,109.3,81.3,114.7,89.4,115.5z M120.4,32.7
		c1.8-6.4,5.7-8,7.8-8.4c1.5,3.3,3.5,9.3,1.3,12.9c-2,3.3-4.6,6-6.5,7.6C121.6,41.2,119.6,35.5,120.4,32.7z M133,83.1l4.2,3.9
		c0.3,0.3,0.6,0.7,0.9,1.1c-2,1.7-6,4.5-10.9,4.3c-4.4-0.2-8.7-2.8-12.8-7.8c0.5-0.7,1.1-1.3,1.6-2C117.7,81.6,125.5,78,133,83.1z"
		/>
</g>
</svg>
