<?xml version="1.0" encoding="utf-8"?>
<!-- Generator: Adobe Illustrator 26.0.0, SVG Export Plug-In . SVG Version: 6.00 Build 0)  -->
<svg version="1.1" xmlns="http://www.w3.org/2000/svg" xmlns:xlink="http://www.w3.org/1999/xlink" x="0px" y="0px" width="150px"
	 height="150px" viewBox="0 0 150 150" style="enable-background:new 0 0 150 150;" xml:space="preserve">
<style type="text/css">
	.st0{display:none;}
	.st1{display:inline;fill:#FFFFFF;}
	.st2{display:inline;}
	.st3{clip-path:url(#SVGID_00000058550071795625233680000012116864411672853439_);}
	.st4{clip-path:url(#SVGID_00000180350362084298025200000003718467294256298131_);}
	.st5{clip-path:url(#SVGID_00000180350362084298025200000003718467294256298131_);fill:#E3E9ED;}
	.st6{clip-path:url(#SVGID_00000180350362084298025200000003718467294256298131_);fill:#CFD9E0;}
	.st7{clip-path:url(#SVGID_00000180350362084298025200000003718467294256298131_);fill:#FFFFFF;}
	.st8{clip-path:url(#SVGID_00000043446207631710369500000002695960654369248170_);}
	.st9{clip-path:url(#SVGID_00000018921156798359180070000001071316494647865006_);}
	.st10{clip-path:url(#SVGID_00000018921156798359180070000001071316494647865006_);fill:#E3E9ED;}
	.st11{clip-path:url(#SVGID_00000018921156798359180070000001071316494647865006_);fill:#CFD9E0;}
	.st12{clip-path:url(#SVGID_00000018921156798359180070000001071316494647865006_);fill:#FFFFFF;}
	.st13{clip-path:url(#SVGID_00000021821283470010553560000007227606802092626103_);}
	.st14{clip-path:url(#SVGID_00000079462371163383867500000015889111409801258901_);}
	.st15{clip-path:url(#SVGID_00000079462371163383867500000015889111409801258901_);fill:#E3E9ED;}
	.st16{clip-path:url(#SVGID_00000079462371163383867500000015889111409801258901_);fill:#CFD9E0;}
	.st17{clip-path:url(#SVGID_00000079462371163383867500000015889111409801258901_);fill:#FFFFFF;}
</style>
<g id="Layer_1">
	<g>
		<path d="M60.4,130.4c0.9,0.8,2.2,0.9,3.3,0.3l11.4-6.8l11.4,6.8c1,0.6,2.3,0.5,3.3-0.3c0.9-0.8,1.2-2.1,0.8-3.2L86,116.2l8.9-8.9
			c0.8-0.8,1-2,0.6-3.1c-0.4-1-1.5-1.7-2.6-1.7H82l-4.4-11.1c-0.4-1.1-1.5-1.8-2.6-1.8s-2.2,0.7-2.6,1.8L68,102.5H57.1
			c-1.1,0-2.2,0.7-2.6,1.7c-0.4,1-0.2,2.3,0.6,3.1l8.9,8.9l-4.4,11.1C59.2,128.4,59.5,129.7,60.4,130.4z M63.9,108.1h6
			c1.1,0,2.2-0.7,2.6-1.8L75,100l2.5,6.3c0.4,1.1,1.5,1.8,2.6,1.8h6l-5.4,5.4c-0.8,0.8-1,2-0.6,3l2,5.1l-5.7-3.4
			c-0.4-0.3-0.9-0.4-1.4-0.4c-0.5,0-1,0.1-1.4,0.4l-5.7,3.4l2-5.1c0.4-1,0.2-2.2-0.6-3L63.9,108.1z"/>
		<circle cx="75.1" cy="144.2" r="2.8"/>
		<path d="M144,115.4h-32.5v-40c0-1.5-1.3-2.8-2.8-2.8H69.5V42.9h47.6c1,0,1.9-0.5,2.4-1.3c0.5-0.8,0.6-1.9,0.1-2.7l-7.8-15.5
			l7.8-15.5c0.4-0.9,0.4-1.9-0.1-2.7c-0.5-0.8-1.4-1.3-2.4-1.3H66.7c-1.5,0-2.8,1.3-2.8,2.8v66.1H41.5c-1.5,0-2.8,1.3-2.8,2.8v23.2
			H6.2c-1.5,0-2.8,1.3-2.8,2.8v42.8c0,1.5,1.3,2.8,2.8,2.8h56.3c1.5,0,2.8-1.3,2.8-2.8s-1.3-2.8-2.8-2.8H9v-37.2h32.5
			c1.5,0,2.8-1.3,2.8-2.8V78.2h61.6v40c0,1.5,1.3,2.8,2.8,2.8h32.5v20.4H87.7c-1.5,0-2.8,1.3-2.8,2.8s1.3,2.8,2.8,2.8H144
			c1.5,0,2.8-1.3,2.8-2.8v-26C146.8,116.7,145.5,115.4,144,115.4z M69.5,9.3h43.1L106.2,22c-0.4,0.8-0.4,1.7,0,2.5l6.4,12.7H69.5
			V9.3z"/>
	</g>
</g>
<g id="Layer_2" class="st0">
</g>
</svg>
